<?xml version="1.0" standalone="yes"?>

<svg version="1.1" viewBox="0.0 0.0 960.0 720.0" fill="none" stroke="none" stroke-linecap="square" stroke-miterlimit="10" clip-path="url(#g15273da8_2_76.0)" xmlns="http://www.w3.org/2000/svg" xmlns:xlink="http://www.w3.org/1999/xlink"><clipPath id="g15273da8_2_76.0"><path d="m0 0l960.0 0l0 720.0l-960.0 0l0 -720.0z" clip-rule="nonzero"></path></clipPath><path fill="#ffffff" d="m0 0l960.0 0l0 720.0l-960.0 0z" fill-rule="nonzero"></path><path fill="#191919" d="m0 532.73627l888.0 0l0 -99.71655l-888.0 0z" fill-rule="nonzero"></path><path fill="#191919" d="m87.984375 385.3469l0 -68.71875l22.265625 0q12.65625 0 16.5 1.03125q5.90625 1.546875 9.890625 6.734375q3.984375 5.171875 3.984375 13.375q0 6.328125 -2.296875 10.640625q-2.296875 4.3125 -5.84375 6.78125q-3.53125 2.453125 -7.1875 3.25q-4.96875 0.984375 -14.390625 0.984375l-9.046875 0l0 25.921875l-13.875 0zm13.875 -57.09375l0 19.5l7.59375 0q8.203125 0 10.96875 -1.078125q2.765625 -1.078125 4.328125 -3.375q1.578125 -2.296875 1.578125 -5.34375q0 -3.75 -2.203125 -6.1875q-2.203125 -2.4375 -5.578125 -3.046875q-2.484375 -0.46875 -9.984375 -0.46875l-6.703125 0zm50.203125 57.09375l0 -68.71875l13.875 0l0 27.046875l27.1875 0l0 -27.046875l13.875 0l0 68.71875l-13.875 0l0 -30.046875l-27.1875 0l0 30.046875l-13.875 0zm69.28125 0l0 -68.71875l22.265625 0q12.65625 0 16.5 1.03125q5.90625 1.546875 9.890625 6.734375q3.984375 5.171875 3.984375 13.375q0 6.328125 -2.296875 10.640625q-2.296875 4.3125 -5.84375 6.78125q-3.53125 2.453125 -7.1875 3.25q-4.96875 0.984375 -14.390625 0.984375l-9.046875 0l0 25.921875l-13.875 0zm13.875 -57.09375l0 19.5l7.59375 0q8.203125 0 10.96875 -1.078125q2.765625 -1.078125 4.328125 -3.375q1.578125 -2.296875 1.578125 -5.34375q0 -3.75 -2.203125 -6.1875q-2.203125 -2.4375 -5.578125 -3.046875q-2.484375 -0.46875 -9.984375 -0.46875l-6.703125 0z" fill-rule="nonzero"></path><path fill="#cccccc" d="m87.96875 496.0929l-6.828125 -28.640625l5.921875 0l4.3125 19.671875l5.234375 -19.671875l6.875 0l5.015625 20.0l4.390625 -20.0l5.828125 0l-6.953125 28.640625l-6.140625 0l-5.703125 -21.40625l-5.671875 21.40625l-6.28125 0zm33.660156 -23.5625l0 -5.078125l5.484375 0l0 5.078125l-5.484375 0zm0 23.5625l0 -20.75l5.484375 0l0 20.75l-5.484375 0zm11.113281 0l0 -28.640625l5.484375 0l0 28.640625l-5.484375 0zm11.113281 0l0 -28.640625l5.484375 0l0 28.640625l-5.484375 0zm31.742188 -20.75l0 4.375l-3.75 0l0 8.359375q0 2.546875 0.09375 2.96875q0.109375 0.421875 0.484375 0.703125q0.390625 0.265625 0.9375 0.265625q0.765625 0 2.203125 -0.53125l0.46875 4.25q-1.90625 0.828125 -4.328125 0.828125q-1.484375 0 -2.6875 -0.5q-1.1875 -0.5 -1.75 -1.28125q-0.546875 -0.796875 -0.765625 -2.140625q-0.171875 -0.96875 -0.171875 -3.875l0 -9.046875l-2.515625 0l0 -4.375l2.515625 0l0 -4.109375l5.515625 -3.203125l0 7.3125l3.75 0zm17.460938 20.75l0 -3.109375q-1.140625 1.65625 -2.984375 2.625q-1.84375 0.953125 -3.890625 0.953125q-2.09375 0 -3.765625 -0.921875q-1.65625 -0.921875 -2.40625 -2.578125q-0.734375 -1.65625 -0.734375 -4.59375l0 -13.125l5.5 0l0 9.53125q0 4.375 0.296875 5.375q0.296875 0.984375 1.09375 1.5625q0.8125 0.5625 2.046875 0.5625q1.40625 0 2.515625 -0.765625q1.109375 -0.765625 1.515625 -1.90625q0.421875 -1.15625 0.421875 -5.609375l0 -8.75l5.484375 0l0 20.75l-5.09375 0zm16.027344 0l-5.484375 0l0 -20.75l5.09375 0l0 2.953125q1.3125 -2.09375 2.359375 -2.75q1.046875 -0.671875 2.375 -0.671875q1.875 0 3.609375 1.046875l-1.703125 4.78125q-1.390625 -0.90625 -2.578125 -0.90625q-1.15625 0 -1.953125 0.640625q-0.796875 0.640625 -1.265625 2.296875q-0.453125 1.65625 -0.453125 6.953125l0 6.40625zm29.175781 0l-5.484375 0l0 -10.59375q0 -3.359375 -0.359375 -4.34375q-0.34375 -0.984375 -1.140625 -1.53125q-0.78125 -0.546875 -1.890625 -0.546875q-1.4375 0 -2.578125 0.78125q-1.125 0.78125 -1.546875 2.078125q-0.40625 1.28125 -0.40625 4.765625l0 9.390625l-5.5 0l0 -20.75l5.109375 0l0 3.046875q2.703125 -3.515625 6.828125 -3.515625q1.8125 0 3.3125 0.65625q1.515625 0.65625 2.28125 1.671875q0.78125 1.015625 1.078125 2.3125q0.296875 1.28125 0.296875 3.6875l0 12.890625zm14.09375 -20.75l5.828125 0l4.96875 14.734375l4.84375 -14.734375l5.6875 0l-7.328125 19.96875l-1.3125 3.609375q-0.71875 1.828125 -1.375 2.78125q-0.65625 0.953125 -1.515625 1.546875q-0.84375 0.59375 -2.078125 0.921875q-1.234375 0.34375 -2.796875 0.34375q-1.59375 0 -3.109375 -0.328125l-0.484375 -4.296875q1.28125 0.25 2.3125 0.25q1.921875 0 2.828125 -1.125q0.921875 -1.125 1.421875 -2.859375l-7.890625 -20.8125zm23.574219 10.078125q0 -2.734375 1.34375 -5.28125q1.34375 -2.5625 3.8125 -3.90625q2.46875 -1.359375 5.515625 -1.359375q4.71875 0 7.71875 3.0625q3.015625 3.0625 3.015625 7.71875q0 4.71875 -3.046875 7.8125q-3.03125 3.09375 -7.640625 3.09375q-2.859375 0 -5.453125 -1.28125q-2.578125 -1.296875 -3.921875 -3.78125q-1.34375 -2.5 -1.34375 -6.078125zm5.625 0.296875q0 3.09375 1.453125 4.734375q1.46875 1.640625 3.625 1.640625q2.140625 0 3.59375 -1.640625q1.453125 -1.640625 1.453125 -4.765625q0 -3.046875 -1.453125 -4.6875q-1.453125 -1.640625 -3.59375 -1.640625q-2.15625 0 -3.625 1.640625q-1.453125 1.640625 -1.453125 4.71875zm33.73047 10.375l0 -3.109375q-1.140625 1.65625 -2.984375 2.625q-1.84375 0.953125 -3.890625 0.953125q-2.09375 0 -3.765625 -0.921875q-1.65625 -0.921875 -2.40625 -2.578125q-0.734375 -1.65625 -0.734375 -4.59375l0 -13.125l5.5 0l0 9.53125q0 4.375 0.296875 5.375q0.296875 0.984375 1.09375 1.5625q0.8125 0.5625 2.046875 0.5625q1.40625 0 2.515625 -0.765625q1.109375 -0.765625 1.515625 -1.90625q0.421875 -1.15625 0.421875 -5.609375l0 -8.75l5.484375 0l0 20.75l-5.09375 0zm20.46875 -9.3125l5.625 -0.546875q0.5 2.828125 2.046875 4.15625q1.5625 1.328125 4.203125 1.328125q2.78125 0 4.203125 -1.171875q1.421875 -1.1875 1.421875 -2.78125q0 -1.015625 -0.609375 -1.71875q-0.59375 -0.71875 -2.078125 -1.25q-1.015625 -0.34375 -4.625 -1.25q-4.640625 -1.140625 -6.515625 -2.828125q-2.640625 -2.359375 -2.640625 -5.765625q0 -2.1875 1.234375 -4.078125q1.25 -1.90625 3.578125 -2.90625q2.328125 -1.0 5.640625 -1.0q5.390625 0 8.109375 2.375q2.71875 2.359375 2.859375 6.296875l-5.78125 0.25q-0.375 -2.203125 -1.59375 -3.171875q-1.21875 -0.96875 -3.65625 -0.96875q-2.515625 0 -3.953125 1.046875q-0.90625 0.65625 -0.90625 1.765625q0 1.015625 0.859375 1.75q1.09375 0.90625 5.3125 1.90625q4.21875 1.0 6.234375 2.0625q2.015625 1.0625 3.15625 2.90625q1.15625 1.84375 1.15625 4.5625q0 2.46875 -1.375 4.625q-1.359375 2.140625 -3.859375 3.1875q-2.5 1.046875 -6.234375 1.046875q-5.4375 0 -8.34375 -2.515625q-2.90625 -2.515625 -3.46875 -7.3125zm28.101562 -14.25l0 -5.078125l5.484375 0l0 5.078125l-5.484375 0zm0 23.5625l0 -20.75l5.484375 0l0 20.75l-5.484375 0zm29.191406 -14.609375l-5.40625 0.96875q-0.265625 -1.609375 -1.234375 -2.421875q-0.96875 -0.828125 -2.515625 -0.828125q-2.046875 0 -3.265625 1.421875q-1.21875 1.40625 -1.21875 4.71875q0 3.703125 1.234375 5.234375q1.234375 1.515625 3.328125 1.515625q1.5625 0 2.5625 -0.890625q1.0 -0.890625 1.40625 -3.0625l5.390625 0.921875q-0.84375 3.703125 -3.234375 5.609375q-2.375 1.890625 -6.375 1.890625q-4.546875 0 -7.265625 -2.875q-2.703125 -2.875 -2.703125 -7.953125q0 -5.125 2.71875 -7.984375q2.71875 -2.875 7.34375 -2.875q3.796875 0 6.03125 1.640625q2.234375 1.625 3.203125 4.96875zm3.9648438 14.609375l0 -28.640625l5.5 0l0 15.203125l6.421875 -7.3125l6.75 0l-7.078125 7.578125l7.59375 13.171875l-5.921875 0l-5.21875 -9.3125l-2.546875 2.671875l0 6.640625l-5.5 0zm58.9375 -3.5l-3.328125 4.25q-2.4375 -1.203125 -4.6875 -3.296875q-1.734375 1.5625 -3.6875 2.3125q-1.953125 0.75 -4.65625 0.75q-5.34375 0 -8.046875 -3.015625q-2.078125 -2.328125 -2.078125 -5.359375q0 -2.75 1.640625 -4.9375q1.640625 -2.203125 4.890625 -3.828125q-1.453125 -1.734375 -2.203125 -3.296875q-0.734375 -1.578125 -0.734375 -2.984375q0 -2.609375 2.078125 -4.40625q2.078125 -1.8125 5.921875 -1.8125q3.71875 0 5.796875 1.90625q2.09375 1.890625 2.09375 4.625q0 1.734375 -1.03125 3.296875q-1.03125 1.5625 -4.1875 3.53125l3.984375 5.25q0.703125 -1.25 1.21875 -3.25l4.953125 1.125q-0.734375 2.640625 -1.28125 3.859375q-0.546875 1.21875 -1.171875 2.046875q0.921875 0.859375 2.375 1.890625q1.453125 1.015625 2.140625 1.34375zm-14.953125 -15.5625l1.484375 -1.140625q1.640625 -1.265625 1.640625 -2.515625q0 -1.046875 -0.796875 -1.78125q-0.78125 -0.75 -2.125 -0.75q-1.3125 0 -2.0625 0.65625q-0.734375 0.640625 -0.734375 1.5q0 1.015625 1.25 2.46875l1.34375 1.5625zm-2.140625 5.953125q-1.890625 0.953125 -2.828125 2.3125q-0.9375 1.34375 -0.9375 2.75q0 1.78125 1.15625 2.90625q1.15625 1.109375 3.109375 1.109375q1.296875 0 2.484375 -0.5q1.1875 -0.515625 2.59375 -1.6875l-5.578125 -6.890625zm45.98047 9.609375l-3.328125 4.25q-2.4375 -1.203125 -4.6875 -3.296875q-1.734375 1.5625 -3.6875 2.3125q-1.953125 0.75 -4.65625 0.75q-5.34375 0 -8.046875 -3.015625q-2.078125 -2.328125 -2.078125 -5.359375q0 -2.75 1.640625 -4.9375q1.640625 -2.203125 4.890625 -3.828125q-1.453125 -1.734375 -2.203125 -3.296875q-0.734375 -1.578125 -0.734375 -2.984375q0 -2.609375 2.078125 -4.40625q2.078125 -1.8125 5.921875 -1.8125q3.71875 0 5.796875 1.90625q2.09375 1.890625 2.09375 4.625q0 1.734375 -1.03125 3.296875q-1.03125 1.5625 -4.1875 3.53125l3.984375 5.25q0.703125 -1.25 1.21875 -3.25l4.953125 1.125q-0.734375 2.640625 -1.28125 3.859375q-0.546875 1.21875 -1.171875 2.046875q0.921875 0.859375 2.375 1.890625q1.453125 1.015625 2.140625 1.34375zm-14.953125 -15.5625l1.484375 -1.140625q1.640625 -1.265625 1.640625 -2.515625q0 -1.046875 -0.796875 -1.78125q-0.78125 -0.75 -2.125 -0.75q-1.3125 0 -2.0625 0.65625q-0.734375 0.640625 -0.734375 1.5q0 1.015625 1.25 2.46875l1.34375 1.5625zm-2.140625 5.953125q-1.890625 0.953125 -2.828125 2.3125q-0.9375 1.34375 -0.9375 2.75q0 1.78125 1.15625 2.90625q1.15625 1.109375 3.109375 1.109375q1.296875 0 2.484375 -0.5q1.1875 -0.515625 2.59375 -1.6875l-5.578125 -6.890625zm31.578125 13.109375l0 -28.640625l5.78125 0l0 28.640625l-5.78125 0zm30.113281 0l-5.484375 0l0 -10.59375q0 -3.359375 -0.359375 -4.34375q-0.34375 -0.984375 -1.140625 -1.53125q-0.78125 -0.546875 -1.890625 -0.546875q-1.4375 0 -2.578125 0.78125q-1.125 0.78125 -1.546875 2.078125q-0.40625 1.28125 -0.40625 4.765625l0 9.390625l-5.5 0l0 -20.75l5.109375 0l0 3.046875q2.703125 -3.515625 6.828125 -3.515625q1.8125 0 3.3125 0.65625q1.515625 0.65625 2.28125 1.671875q0.78125 1.015625 1.078125 2.3125q0.296875 1.28125 0.296875 3.6875l0 12.890625zm3.6367188 -5.921875l5.515625 -0.84375q0.34375 1.609375 1.421875 2.4375q1.078125 0.828125 3.0 0.828125q2.140625 0 3.203125 -0.78125q0.734375 -0.546875 0.734375 -1.46875q0 -0.625 -0.390625 -1.03125q-0.421875 -0.390625 -1.84375 -0.71875q-6.640625 -1.46875 -8.421875 -2.671875q-2.453125 -1.6875 -2.453125 -4.671875q0 -2.703125 2.125 -4.53125q2.125 -1.84375 6.609375 -1.84375q4.25 0 6.3125 1.390625q2.078125 1.390625 2.859375 4.109375l-5.171875 0.953125q-0.328125 -1.21875 -1.265625 -1.859375q-0.921875 -0.640625 -2.640625 -0.640625q-2.171875 0 -3.109375 0.609375q-0.625 0.421875 -0.625 1.109375q0 0.578125 0.546875 1.0q0.75 0.546875 5.125 1.546875q4.390625 0.984375 6.125 2.4375q1.71875 1.453125 1.71875 4.078125q0 2.84375 -2.390625 4.90625q-2.375 2.046875 -7.046875 2.046875q-4.234375 0 -6.703125 -1.71875q-2.46875 -1.71875 -3.234375 -4.671875zm28.277344 -8.5l-4.96875 -0.890625q0.828125 -3.015625 2.875 -4.453125q2.0625 -1.453125 6.109375 -1.453125q3.671875 0 5.46875 0.875q1.796875 0.875 2.515625 2.21875q0.734375 1.328125 0.734375 4.90625l-0.046875 6.40625q0 2.734375 0.25 4.03125q0.265625 1.296875 1.0 2.78125l-5.4375 0q-0.21875 -0.546875 -0.53125 -1.625q-0.125 -0.484375 -0.1875 -0.640625q-1.40625 1.359375 -3.015625 2.046875q-1.59375 0.6875 -3.40625 0.6875q-3.203125 0 -5.0625 -1.734375q-1.84375 -1.75 -1.84375 -4.40625q0 -1.75 0.84375 -3.125q0.84375 -1.375 2.359375 -2.109375q1.515625 -0.734375 4.359375 -1.28125q3.84375 -0.71875 5.328125 -1.34375l0 -0.546875q0 -1.59375 -0.78125 -2.265625q-0.78125 -0.671875 -2.9375 -0.671875q-1.46875 0 -2.296875 0.578125q-0.8125 0.578125 -1.328125 2.015625zm7.34375 4.453125q-1.046875 0.359375 -3.34375 0.84375q-2.28125 0.484375 -2.984375 0.953125q-1.0625 0.765625 -1.0625 1.9375q0 1.15625 0.859375 2.0q0.859375 0.828125 2.1875 0.828125q1.484375 0 2.828125 -0.96875q1.0 -0.75 1.3125 -1.8125q0.203125 -0.703125 0.203125 -2.6875l0 -1.09375zm29.667969 9.96875l-5.484375 0l0 -10.59375q0 -3.359375 -0.359375 -4.34375q-0.34375 -0.984375 -1.140625 -1.53125q-0.78125 -0.546875 -1.890625 -0.546875q-1.4375 0 -2.578125 0.78125q-1.125 0.78125 -1.546875 2.078125q-0.40625 1.28125 -0.40625 4.765625l0 9.390625l-5.5 0l0 -20.75l5.109375 0l0 3.046875q2.703125 -3.515625 6.828125 -3.515625q1.8125 0 3.3125 0.65625q1.515625 0.65625 2.28125 1.671875q0.78125 1.015625 1.078125 2.3125q0.296875 1.28125 0.296875 3.6875l0 12.890625zm17.589844 -6.609375l5.46875 0.921875q-1.0625 3.015625 -3.34375 4.59375q-2.265625 1.5625 -5.6875 1.5625q-5.40625 0 -8.0 -3.53125q-2.0625 -2.84375 -2.0625 -7.15625q0 -5.15625 2.6875 -8.078125q2.703125 -2.921875 6.828125 -2.921875q4.625 0 7.296875 3.0625q2.6875 3.0625 2.5625 9.359375l-13.75 0q0.0625 2.453125 1.328125 3.8125q1.28125 1.34375 3.171875 1.34375q1.28125 0 2.15625 -0.703125q0.890625 -0.703125 1.34375 -2.265625zm0.3125 -5.546875q-0.0625 -2.375 -1.234375 -3.609375q-1.171875 -1.25 -2.859375 -1.25q-1.796875 0 -2.96875 1.3125q-1.171875 1.3125 -1.140625 3.546875l8.203125 0z" fill-rule="nonzero"></path></svg>

